<?xml version="1.0" standalone="no"?>
<!DOCTYPE svg PUBLIC "-//W3C//DTD SVG 20010904//EN"
 "http://www.w3.org/TR/2001/REC-SVG-20010904/DTD/svg10.dtd">
<svg version="1.0" xmlns="http://www.w3.org/2000/svg"
 width="700.000000pt" height="700.000000pt" viewBox="0 0 700.000000 700.000000"
 preserveAspectRatio="xMidYMid meet">
<metadata>
Created by potrace 1.14, written by Peter Selinger 2001-2017
</metadata>
<g transform="translate(0.000000,700.000000) scale(0.100000,-0.100000)"
fill="#000000" stroke="none">
<path d="M3268 6859 c-1326 -90 -2479 -960 -2932 -2213 -90 -248 -153 -522
-181 -789 -19 -188 -19 -515 0 -705 99 -950 605 -1817 1390 -2381 476 -342
1026 -548 1630 -612 157 -17 523 -14 685 5 764 88 1437 405 1979 931 556 540
892 1217 998 2011 21 163 24 597 5 759 -93 780 -409 1444 -946 1994 -690 704
-1642 1067 -2628 1000z m1307 -1593 c82 -22 191 -77 253 -126 55 -44 132 -135
132 -155 0 -7 -76 -56 -169 -109 l-169 -98 -41 45 c-61 66 -125 91 -236 92
-82 0 -96 -3 -157 -33 -150 -74 -226 -240 -215 -467 11 -228 113 -377 287
-421 115 -29 255 0 338 71 44 38 87 116 98 178 l6 37 -176 0 -176 0 0 170 0
170 366 0 366 0 -5 -212 c-5 -242 -15 -293 -80 -428 -53 -109 -167 -227 -272
-282 -132 -68 -199 -83 -380 -83 -140 0 -169 3 -235 23 -284 89 -472 302 -534
604 -10 48 -16 127 -16 208 0 81 6 160 16 208 65 316 268 537 564 612 95 25
340 22 435 -4z m-1295 -191 l0 -185 -425 0 -425 0 0 -135 0 -135 400 0 400 0
0 -170 0 -170 -400 0 -401 0 3 -132 3 -133 423 -3 422 -2 -2 -183 -3 -182
-627 -3 -628 -2 0 810 0 810 630 0 630 0 0 -185z m1335 -1690 c210 -57 371
-207 431 -404 8 -25 14 -52 14 -58 0 -10 -48 -13 -207 -12 l-208 0 -30 47
c-45 70 -113 102 -219 102 -98 0 -156 -23 -186 -72 -25 -42 -25 -84 0 -126 27
-44 49 -52 296 -110 245 -59 304 -79 387 -136 112 -76 172 -182 184 -321 18
-212 -91 -398 -287 -493 -121 -59 -199 -75 -355 -75 -349 0 -593 150 -686 421
-34 99 -50 92 199 92 l217 -1 30 -52 c24 -42 41 -57 89 -82 53 -27 69 -30 145
-30 66 1 97 6 133 22 109 50 120 185 19 237 -15 8 -115 33 -221 56 -238 50
-331 80 -407 129 -110 71 -166 161 -183 293 -20 163 31 311 146 424 84 82 201
139 336 164 74 13 291 4 363 -15z m-1581 -164 c132 -35 220 -85 312 -176 159
-158 229 -370 203 -620 -19 -183 -81 -324 -197 -447 -140 -148 -303 -223 -538
-249 -375 -40 -717 126 -860 416 -66 135 -79 194 -79 370 0 172 18 257 83 379
56 108 207 257 231 230 12 -13 191 -325 191 -332 0 -4 -15 -19 -33 -33 -75
-60 -117 -195 -96 -313 33 -192 204 -306 459 -306 305 1 485 158 467 411 -11
170 -108 287 -259 313 l-38 7 0 -176 0 -175 -170 0 -170 0 0 366 0 367 208 -6
c167 -4 222 -9 286 -26z"/>
</g>
</svg>
